<svg width="120" height="17" viewBox="0 0 120 17" fill="none" xmlns="http://www.w3.org/2000/svg">
<g clip-path="url(#clip0_529_2228)">
<path d="M53.1429 12.8462L50.385 5.19521H47.5245L44.6909 12.768L41.9794 5.19521H39.1824H38.8163H35.1821L30.2813 9.68491V0.939941H26.9254V16.4171H30.2813V13.5731L31.9092 12.0339L35.5482 16.4171H39.6119L34.3645 9.94775L38.9139 5.45806L42.9898 16.4171H46.2359L48.8864 9.42206L51.5028 16.4171H54.7269L58.9224 5.19521H55.9546L53.1429 12.8462Z" fill="#21254E"/>
<path d="M63.5743 0.490173C63.179 0.163391 62.6737 0 62.0587 0C61.4436 0 60.9189 0.175231 60.5333 0.520957C60.1476 0.86905 59.9524 1.30002 59.9524 1.81388C59.9524 2.32773 60.1476 2.76107 60.5333 3.1068C60.9189 3.45489 61.429 3.62775 62.0587 3.62775C62.6884 3.62775 63.1985 3.45015 63.5841 3.09496C63.9697 2.73976 64.165 2.29221 64.165 1.74994C64.165 1.20767 63.9673 0.812219 63.5719 0.487805L63.5743 0.490173Z" fill="#21254E"/>
<path d="M63.7354 5.19531H60.3795V16.4172H63.7354V5.19531Z" fill="#21254E"/>
<path d="M70.7865 8.08448C71.2453 7.84295 71.7554 7.71982 72.3119 7.71982C72.8684 7.71982 73.3296 7.84295 73.7763 8.08448C74.2205 8.32839 74.5988 8.71437 74.9136 9.2448L77.4934 7.86663C77.0931 6.96206 76.4366 6.26351 75.5262 5.77096C74.6159 5.27606 73.5517 5.02979 72.3339 5.02979C71.116 5.02979 69.9786 5.28079 69.0121 5.78044C68.0432 6.28245 67.2841 6.96206 66.7325 7.82401C66.1809 8.68832 65.9052 9.68287 65.9052 10.8077C65.9052 11.9325 66.1809 12.9152 66.7325 13.789C67.2841 14.6651 68.0456 15.3495 69.0121 15.8444C69.9786 16.3369 71.0867 16.5832 72.3339 16.5832C73.581 16.5832 74.6159 16.3322 75.5262 15.8325C76.4366 15.3305 77.0931 14.6343 77.4934 13.7463L74.9136 12.3682C74.5988 12.9104 74.218 13.3035 73.7763 13.5451C73.3321 13.789 72.844 13.9097 72.3119 13.9097C71.753 13.9097 71.2453 13.789 70.7865 13.5451C70.3276 13.3035 69.964 12.9483 69.6906 12.4818C69.4173 12.0153 69.283 11.4565 69.283 10.8029C69.283 10.1494 69.4173 9.59289 69.6906 9.1335C69.964 8.67411 70.3301 8.32365 70.7865 8.07975V8.08448Z" fill="#21254E"/>
<path d="M91.515 5.19521H87.5148L82.6139 9.68491V0.939941H79.258V16.4171H82.6139V13.5731L84.2418 12.0339L87.8833 16.4171H91.9446L86.6971 9.94775L91.515 5.19521Z" fill="#21254E"/>
<path d="M103.113 5.74695C102.247 5.26862 101.261 5.02708 100.157 5.02708C99.1982 5.02708 98.3513 5.23783 97.6216 5.65223C97.2774 5.84877 96.9699 6.09504 96.6965 6.38867V0.939941H93.3406V16.4195H96.5452V15.1289C96.8381 15.4723 97.1774 15.7541 97.5654 15.9695C98.3049 16.3816 99.1665 16.5852 100.157 16.5852C101.263 16.5852 102.247 16.3437 103.113 15.8653C103.979 15.3846 104.668 14.7145 105.178 13.8526C105.688 12.9906 105.942 11.9748 105.942 10.8073C105.942 9.63992 105.688 8.62405 105.178 7.76211C104.67 6.89779 103.982 6.22765 103.113 5.74695ZM102.147 12.4768C101.881 12.9504 101.529 13.3079 101.092 13.5495C100.653 13.7934 100.155 13.9141 99.5961 13.9141C99.0371 13.9141 98.5368 13.7934 98.0902 13.5495C97.646 13.3079 97.2921 12.948 97.026 12.4768C96.7624 12.0032 96.6282 11.4491 96.6282 10.8073C96.6282 10.1656 96.76 9.59729 97.026 9.1379C97.2921 8.67852 97.6484 8.32805 98.0902 8.08415C98.5344 7.84262 99.0371 7.71948 99.5961 7.71948C100.155 7.71948 100.653 7.84262 101.092 8.08415C101.529 8.32805 101.881 8.67852 102.147 9.1379C102.41 9.59729 102.544 10.1538 102.544 10.8073C102.544 11.4609 102.413 12.0032 102.147 12.4768Z" fill="#39BFF0"/>
<path d="M111.426 5.19531H108.07V16.4172H111.426V5.19531Z" fill="#39BFF0"/>
<path d="M111.262 0.490173C110.867 0.163391 110.362 0 109.747 0C109.132 0 108.607 0.175231 108.221 0.520957C107.836 0.86905 107.64 1.30002 107.64 1.81388C107.64 2.32773 107.836 2.76107 108.221 3.1068C108.607 3.45489 109.117 3.62775 109.747 3.62775C110.376 3.62775 110.887 3.45015 111.272 3.09496C111.658 2.73976 111.853 2.29221 111.853 1.74994C111.853 1.20767 111.655 0.812219 111.26 0.487805L111.262 0.490173Z" fill="#39BFF0"/>
<path d="M118.218 5.44652V2.71387H114.843V5.44652H113.059V7.94948H114.843V16.4174H118.218V7.94948H120V5.44652H118.218Z" fill="#39BFF0"/>
<path d="M6.06259 14.2717L11.5394 8.95797C12.0715 8.44175 12.9331 8.44175 13.4651 8.95797L18.942 14.2717C19.7986 15.1029 19.1934 16.526 17.9779 16.526H7.02666C5.81365 16.526 5.20592 15.1029 6.06259 14.2717Z" fill="#39BFF0"/>
<path d="M8.96209 0.0664062H15.5592C16.8161 0.0664062 17.4434 1.53929 16.555 2.40124L9.95788 8.8019C9.06948 9.66385 7.55139 9.05291 7.55139 7.83576V1.4351C7.55139 0.679714 8.18352 0.0664062 8.96209 0.0664062Z" fill="#39BFF0"/>
<path d="M4.99359 0.0566406H1.4107C0.632131 0.0566406 0 0.669949 0 1.42534V15.1573C0 16.3744 1.51321 16.983 2.40161 16.1258L5.98938 12.6472C6.25297 12.3915 6.40185 12.0434 6.40185 11.6787V1.42534C6.40185 0.669949 5.76972 0.0566406 4.99115 0.0566406H4.99359Z" fill="#21254E"/>
</g>
<defs>
<clipPath id="clip0_529_2228">
<rect width="120" height="16.5854" fill="white"/>
</clipPath>
</defs>
</svg>
